<?xml version="1.0"?>
<svg xmlns="http://www.w3.org/2000/svg" id="Capa_1" enable-background="new 0 0 512 512" height="512px" viewBox="0 0 512 512" width="512px" class=""><g><g><path d="m256 0c-141.484 0-256 114.497-256 256 0 141.484 114.497 256 256 256 141.484 0 256-114.497 256-256 0-141.484-114.497-256-256-256zm0 482c-124.617 0-226-101.383-226-226s101.383-226 226-226 226 101.383 226 226-101.383 226-226 226z" data-original="#000000" class="active-path" data-old_color="#000000" fill="#FFFFFF"/><path d="m256 60c-108.075 0-196 87.925-196 196s87.925 196 196 196 196-87.925 196-196-87.925-196-196-196zm0 362c-91.532 0-166-74.467-166-166s74.468-166 166-166 166 74.467 166 166-74.468 166-166 166z" data-original="#000000" class="active-path" data-old_color="#000000" fill="#FFFFFF"/><path d="m152.5 239.5h-15c-8.284 0-15 6.716-15 15s6.716 15 15 15h15c8.284 0 15-6.716 15-15s-6.716-15-15-15z" data-original="#000000" class="active-path" data-old_color="#000000" fill="#FFFFFF"/><path d="m257.5 344.5c-8.284 0-15 6.716-15 15v15c0 8.284 6.716 15 15 15s15-6.716 15-15v-15c0-8.284-6.716-15-15-15z" data-original="#000000" class="active-path" data-old_color="#000000" fill="#FFFFFF"/><path d="m377.5 239.5h-15c-8.284 0-15 6.716-15 15s6.716 15 15 15h15c8.284 0 15-6.716 15-15s-6.716-15-15-15z" data-original="#000000" class="active-path" data-old_color="#000000" fill="#FFFFFF"/><path d="m257.5 164.5c8.284 0 15-6.716 15-15v-15c0-8.284-6.716-15-15-15s-15 6.716-15 15v15c0 8.284 6.716 15 15 15z" data-original="#000000" class="active-path" data-old_color="#000000" fill="#FFFFFF"/><path d="m208.455 184.242c-5.857-5.858-15.355-5.858-21.213 0s-5.858 15.355 0 21.213l49.045 49.045-34.394 34.394c-5.858 5.858-5.858 15.355 0 21.213 5.857 5.858 15.355 5.859 21.213 0l45-45c5.858-5.858 5.858-15.355 0-21.213z" data-original="#000000" class="active-path" data-old_color="#000000" fill="#FFFFFF"/></g></g> </svg>
